<?xml version="1.0" standalone="no"?><!DOCTYPE svg PUBLIC "-//W3C//DTD SVG 1.1//EN" "http://www.w3.org/Graphics/SVG/1.1/DTD/svg11.dtd"><svg t="1606922655339" class="icon" viewBox="0 0 3613 1024" version="1.1" xmlns="http://www.w3.org/2000/svg" p-id="19933" xmlns:xlink="http://www.w3.org/1999/xlink" width="705.6640625" height="200"><defs><style type="text/css"></style></defs><path d="M1296.0531 658.668996c-58.041572 0-84.155808-28.797205-93.5462-54.46428-56.163493 10.016419-116.619738 16.008384-134.953363 16.813275-27.81345 1.252052-40.333974-10.642445-45.878777-20.748297-11.626201-21.284891-1.341485-52.496769 11.357904-77.895546-44.537293 25.309345-88.985153 87.196507-105.440699 114.652228a16.670183 16.670183 0 0 1-30.049258-13.951442c8.138341-23.96786 15.561223-65.106725 5.634236-77.180087-5.8131-7.065153-4.829345-17.618166 2.235808-23.431266 7.065153-5.8131 17.618166-4.829345 23.431266 2.235808 7.870044 9.569258 11.268472 22.626376 12.073363 36.309519 32.46393-39.171354 79.59476-83.08262 128.067074-83.08262 6.17083 0 11.894498 3.48786 14.756332 8.943232 2.861834 5.544803 2.414672 12.162795-1.16262 17.260436-20.032838 28.707773-38.008734 68.684017-31.748472 80.131354 1.341485 2.414672 7.154585 3.756157 15.203494 3.398428 17.260437-0.715459 77.26952-6.796856 131.823231-16.544978 0.983755-46.504803 27.992314-81.651703 73.692227-94.172227 29.870393-8.227773 67.61083-5.365939 78.789869 16.097816 7.154585 13.772576 7.959476 27.992314 2.32524 41.228297-9.926987 23.252402-39.439651 42.033188-87.7331 55.895197-8.853799 2.504105-18.601921 4.918777-28.797205 7.244017 6.617991 12.878253 22.358079 27.81345 59.91965 27.81345 66.895371 0 165.539214-59.204192 245.581136-147.295022 6.17083-6.796856 16.723843-7.33345 23.520698-1.16262 6.796856 6.17083 7.33345 16.723843 1.162621 23.520699-87.285939 96.22917-193.352664 158.384629-270.264455 158.384629z m7.512315-152.839826c-10.374148 0-23.96786 1.967511-37.47214 8.585502-14.577467 7.244017-31.211878 21.553188-34.342009 49.8138 8.49607-1.967511 16.63441-3.935022 23.967861-6.081398 53.480524-15.382358 64.301834-32.195633 66.358777-37.024978 1.16262-2.682969 2.056943-6.528559-1.16262-12.699389-1.609782-1.073188-8.227773-2.593537-17.349869-2.593537zM1978.779389 649.904629c-13.504279 0-24.146725-6.260262-30.049258-17.618166-14.219738-27.366288 5.544803-87.911965 37.293275-154.002446 0.447162-1.430917 1.073188-2.772402 1.967511-4.024454 35.862358-73.871092 85.944454-153.913013 119.839301-202.027598 57.504978-81.651703 137.278603-177.791441 190.848559-170.189694 10.642445 1.430917 18.780786 8.227773 21.64262 18.15476 16.187249 55.179738-168.937642 257.117904-305.053624 373.648209-34.610306 73.066201-42.659214 115.009956-36.846114 123.237729 49.903231-0.536594 128.424803-39.171354 197.734848-73.334497 62.334323-30.675284 116.262009-57.236681 149.709694-57.236682 5.544803 0 10.82131 2.772402 13.862009 7.422882 3.130131 4.65048 3.666725 10.553013 1.430917 15.650656-17.618166 41.675459-28.707773 87.554236-24.236158 99.359301 75.033712-0.715459 179.66952-63.586376 273.126289-137.815197 24.236157-46.683668 50.350393-86.92821 56.163493-95.871441 33.268821-50.61869 117.424629-168.043319 172.693799-162.945677 14.756332 1.341485 24.236157 12.162795 23.610131 26.919127-1.699214 38.724192-104.099214 157.043144-227.247511 255.41869-35.683493 71.09869-40.512838 108.034236-35.95179 114.652227 52.586201-0.447162 183.246812-62.960349 269.638428-104.367511 72.350742-34.610306 96.855197-45.878777 109.37572-45.878777 9.211528 0 16.63441 7.422882 16.634411 16.63441 0 9.211528-7.422882 16.63441-16.634411 16.634411-8.674934 1.252052-54.553712 23.162969-95.06655 42.569781C2763.458515 582.651528 2639.326463 642.124017 2579.943406 642.124017c-13.414847 0-24.146725-6.081397-30.049258-17.171004-10.284716-19.049083-3.48786-52.496769 10.284717-88.806288-85.40786 60.635109-174.840175 105.977293-244.239651 105.977292-11.089607 0-20.390568-4.829345-26.203668-13.683144-14.6669-22.089782-2.593537-69.041747 9.65869-103.56262-28.886638 9.211528-69.220611 29.065502-108.57083 48.472315-72.619039 36.041223-154.896769 76.554061-212.044017 76.554061z m308.452052-514.504105c-36.041223 7.512314-120.018166 95.871441-209.629345 243.792489-6.17083 10.105852-11.894498 19.943406-17.439301 29.423232 128.603668-121.001921 217.141659-237.979389 227.068646-273.215721z m519.512314 111.969258c-28.439476 10.731878-84.692402 70.472664-141.303056 159.636681 72.976769-66.537642 128.961397-130.839476 141.303056-159.636681z" fill="#d81e06" p-id="19934"></path><path d="M2367.541659 367.745677c-2.32524 0-4.739913-0.447162-6.97572-1.520349a16.68807 16.68807 0 0 1-8.138341-22.089782c1.788646-3.935022 45.61048-94.798253 202.206463-61.171703a16.652297 16.652297 0 0 1-6.97572 32.553362c-130.750044-27.992314-164.555459 41.854323-164.913188 42.569782-2.861834 6.081397-8.943231 9.65869-15.203494 9.65869zM2730.636856 986.259563c-14.30917 0-25.667074-3.48786-33.98428-10.284716-6.17083-5.097642-13.593712-14.6669-13.593711-30.943581 0-58.578166 114.920524-191.116856 289.671266-300.313711 23.341834-35.415197 46.951965-72.082445 70.204367-109.107424-57.773275 33.984279-134.059039 72.708472-165.092053 62.244891-10.82131-3.577293-18.15476-11.536769-19.943406-21.732053-5.723668-31.837904 51.691878-83.440349 86.481048-111.432663 7.154585-5.8131 17.618166-4.65048 23.431267 2.504104 5.723668 7.154585 4.65048 17.618166-2.504105 23.431267-35.057467 28.171179-66.805939 61.350568-73.245066 76.106899h0.626027c27.724017 0 118.766114-48.114585 193.084366-96.855196a16.63441 16.63441 0 0 1 20.748297 1.967511c5.634236 5.455371 6.707424 14.040873 2.593537 20.658864-16.455546 26.829694-41.854323 67.700262-71.993013 114.74166 136.563144-74.228821 301.297467-130.124017 473.007511-130.124018 9.211528 0 16.63441 7.422882 16.634411 16.634411 0 9.211528-7.422882 16.63441-16.634411 16.63441-191.564017 0-374.363668 74.58655-516.113886 163.124542-96.497467 145.953537-216.873362 312.744803-263.378166 312.744803z m189.149345-262.752139c-125.026376 91.131528-203.458515 184.946026-203.458515 221.523842 0 4.024454 1.073188 4.918777 1.520349 5.276507 0.715459 0.626026 3.935022 2.682969 12.788821 2.682969 24.057293-2.861834 100.432489-100.07476 189.149345-229.483318zM298.882795 706.873013c-36.846114 0-52.94393-17.618166-60.009083-32.374498C189.059913 570.578166 467.19441 217.320524 523.447336 147.563319c7.065153-8.764367 19.853974-10.105852 28.618341-3.040699 8.764367 7.065153 10.105852 19.853974 3.040699 28.618341-133.164716 165.181485-307.915459 424.535197-279.565415 483.828821 1.252052 2.504105 4.471616 9.300961 23.341834 9.30096 186.198079 0 609.660087-152.839825 609.660087-404.502358 0-69.131179-64.122969-111.432664-117.87179-134.685065-72.529607-31.30131-171.084017-48.561747-277.41904-48.561747-186.198079 0-384.022358 58.131004-386.079301 165.986376 2.235808 11.357904 21.016594 87.375371 121.359651 87.375371a20.381624 20.381624 0 1 1 0 40.781135c-113.579039 0-155.522795-80.75738-161.872489-123.416594-0.178865-0.983755-0.268297-1.967511-0.268297-2.951266 0-143.181135 221.255546-208.377293 426.860436-208.377293 111.790393 0 216.068472 18.423057 293.606289 51.960175 93.188472 40.244541 142.465677 99.806463 142.465676 171.978341 0 289.04524-461.649607 445.015197-650.441222 445.015196zM1510.780087 662.067424c-20.032838 0-31.659039-3.84559-33.179388-4.382184a16.670183 16.670183 0 0 1 3.398428-32.285065c37.651004-4.65048 61.797729-17.260437 71.635283-37.47214 17.886463-36.30952-12.699389-89.790044-12.967685-90.326638a16.63441 16.63441 0 0 1 5.902533-22.80524 16.63441 16.63441 0 0 1 22.80524 5.813101c1.609782 2.772402 40.155109 69.131179 14.219738 121.985676-2.056943 4.203319-4.471616 8.227773-7.154585 11.983931 43.911266-17.439301 101.952838-55.537467 168.669345-136.115983 3.666725-4.382183 9.211528-6.439127 14.845764-5.902533 5.634236 0.626026 10.553013 4.113886 12.967685 9.211529 1.252052 2.593537 30.406987 63.675808 7.780612 116.440873 57.773275-23.699563 137.010306-64.033537 211.149694-127.619913 6.975721-5.991965 17.528734-5.187074 23.520699 1.788647 5.991965 6.975721 5.187074 17.528734-1.788647 23.520698-144.701485 124.04262-303.086114 161.961921-309.704104 163.571703a16.63441 16.63441 0 0 1-19.853974-11.98393c-2.32524-8.764367 2.772402-17.707598 11.447336-20.211703 27.455721-7.959476 45.789345-21.910917 54.374847-41.407161 9.390393-21.106026 6.439127-45.789345 1.878079-63.944105-107.676507 120.644192-194.873013 140.140437-239.9469 140.140437z" fill="#d81e06" p-id="19935"></path></svg>