<?xml version="1.0" standalone="no"?><!DOCTYPE svg PUBLIC "-//W3C//DTD SVG 1.1//EN" "http://www.w3.org/Graphics/SVG/1.1/DTD/svg11.dtd"><svg t="1606920779686" class="icon" viewBox="0 0 1189 1024" version="1.1" xmlns="http://www.w3.org/2000/svg" p-id="7024" xmlns:xlink="http://www.w3.org/1999/xlink" width="232.2265625" height="200"><defs><style type="text/css"></style></defs><path d="M697.457778 277.617778a149.333333 149.333333 0 1 0-148.195556 149.333333 149.617778 149.617778 0 0 0 148.195556-149.333333z m-241.777778 0a92.444444 92.444444 0 1 1 93.582222 92.444444 92.728889 92.728889 0 0 1-93.582222-92.444444zM321.706667 618.382222a135.111111 135.111111 0 0 0 133.973333 135.395556h184.888889a135.111111 135.111111 0 0 0 0-270.222222h-184.888889a135.111111 135.111111 0 0 0-133.973333 134.826666z m135.111111-78.222222h184.888889a78.222222 78.222222 0 0 1 0 156.444444h-184.888889a78.222222 78.222222 0 0 1 0-156.444444z" fill="#727272" p-id="7025"></path><path d="M836.835556 0H122.595556a34.417778 34.417778 0 0 0-33.848889 34.417778V216.177778h56.888889V56.888889h668.444444v768H145.635556v-159.288889h-56.888889v181.76A34.417778 34.417778 0 0 0 122.595556 881.777778h714.24a34.417778 34.417778 0 0 0 34.133333-34.417778V34.417778A34.417778 34.417778 0 0 0 836.835556 0z" fill="#727272" p-id="7026"></path><path d="M28.444444 329.955556h170.666667a28.444444 28.444444 0 0 0 0-56.888889H28.444444a28.444444 28.444444 0 1 0 0 56.888889zM227.555556 580.266667a28.444444 28.444444 0 0 0-28.444445-28.444445H28.444444a28.444444 28.444444 0 0 0 0 56.888889h170.666667a28.444444 28.444444 0 0 0 28.444445-28.444444zM89.031111 386.844444h56.888889v107.804445h-56.888889z" fill="#727272" p-id="7027"></path></svg>