<?xml version="1.0" standalone="no"?><!DOCTYPE svg PUBLIC "-//W3C//DTD SVG 1.1//EN" "http://www.w3.org/Graphics/SVG/1.1/DTD/svg11.dtd"><svg t="1606923187684" class="icon" viewBox="0 0 3200 1024" version="1.1" xmlns="http://www.w3.org/2000/svg" p-id="25530" xmlns:xlink="http://www.w3.org/1999/xlink" width="625" height="200"><defs><style type="text/css"></style></defs><path d="M0 0h3200v1024H0z" fill="#08af4d" fill-opacity="0.1" p-id="25531"></path><path d="M2104.9472 711.3024a175.7184 175.7184 0 0 1 22.6944-331.5072 83.9616 83.9616 0 0 1 85.8432 137.024 54.5408 54.5408 0 0 1-1.1648 0.8 59.2448 59.2448 0 0 1-31.104 7.8464c-15.6544 0-28.3264-4.896-34.7648-13.44a42.88 42.88 0 0 1-9.2416-27.2 39.2064 39.2064 0 0 1 9.2416-23.9232c0.8-0.9664 1.632-1.92 2.5152-2.9952a92.5312 92.5312 0 0 0 16-23.5712 27.8016 27.8016 0 0 0-3.4048-28.5696 35.84 35.84 0 0 0-30.1376-14.2208 59.7504 59.7504 0 0 0-18.8736 3.2512 61.2032 61.2032 0 0 0-16.1408 8.192 108.0256 108.0256 0 0 0-19.6928 18.9568l0.0512-0.1024a131.7184 131.7184 0 1 0 173.9712-26.5024c-0.9472-0.64-1.92-1.2416-2.88-1.8368a12.0832 12.0832 0 0 0-1.4528-1.0432c-3.0784-1.8816-4.8384-3.3088-4.6912-3.84 0.032-0.128 0.192-0.192 0.4608-0.192a24.8448 24.8448 0 0 1 7.1232 2.56c1.7408 0.8384 3.5008 1.7152 5.2224 2.6176l0.8448 0.448 0.4928 0.256a176.576 176.576 0 0 1 10.1696 5.8688 175.6928 175.6928 0 0 1-161.0432 311.0912z m-1101.7856 11.2192a108.3968 108.3968 0 0 1-108.4864-108.4928V425.4656h25.8304a44.1984 44.1984 0 0 1 33.6128 15.648 43.264 43.264 0 0 1 10.304 28.2624v142.08a56.7808 56.7808 0 0 0 56.8256 56.8256h74.912a56.7808 56.7808 0 0 0 56.8256-56.8256v-142.08a44.4992 44.4992 0 0 1 5.4016-21.12 43.6032 43.6032 0 0 1 38.5088-22.7904h25.8304v188.5632a108.3968 108.3968 0 0 1-108.4864 108.4928z m901.504-12.9152h-142.08a141.44 141.44 0 0 1-79.4368-24.2624 142.5344 142.5344 0 0 1-51.4752-62.5088 141.8688 141.8688 0 0 1 13.1008-134.7328 142.4512 142.4512 0 0 1 62.5088-51.4752 141.1648 141.1648 0 0 1 55.3024-11.168h103.328v5.1648a46.496 46.496 0 0 1-46.496 46.496h-51.648a85.248 85.248 0 1 0 0 170.4896h116.2432v-0.0448c0.416 0 0.8512 0.0448 1.28 0.0448a19.3984 19.3984 0 0 0 19.3728-19.0784v-0.5696c0-0.3392 0-0.6784-0.0448-1.0176h0.0448V298.8928a64.5824 64.5824 0 0 1 64.576 64.576v281.5616a64.5824 64.5824 0 0 1-64.576 64.576z m-338.3872 0a44.1984 44.1984 0 0 1-33.6128-15.648 43.264 43.264 0 0 1-10.304-28.2624v-142.08a56.7808 56.7808 0 0 0-56.8256-56.8256h-74.8992a56.7808 56.7808 0 0 0-56.8256 56.8256v142.08a44.4992 44.4992 0 0 1-5.4016 21.12 43.6032 43.6032 0 0 1-38.5088 22.7904h-25.8304V521.0432a108.3968 108.3968 0 0 1 108.4928-108.4928h111.072a108.3968 108.3968 0 0 1 108.4928 108.4928v188.5632z m-958.336 0H517.5424a57.1136 57.1136 0 0 1 29.216-49.6832 55.872 55.872 0 0 1 27.6032-7.1424h173.0752a46.496 46.496 0 1 0 0-92.992h-142.08a103.328 103.328 0 1 1 0-206.6496h232.4864a56.8256 56.8256 0 0 1-56.8256 56.8256H607.9488a46.496 46.496 0 1 0 0 92.992h142.08a103.328 103.328 0 1 1 0 206.6496z m1994.1696-12.5184h-82.656a145.6192 145.6192 0 0 1-55.3024-10.7712 143.8912 143.8912 0 0 1-24.1344-12.64 141.824 141.824 0 0 1-21.024-16.7424 139.1872 139.1872 0 0 1-17.3504-20.288 135.8208 135.8208 0 0 1-13.1008-23.2896 133.12 133.12 0 0 1 0-106.7328 135.68 135.68 0 0 1 13.1008-23.2896 139.2768 139.2768 0 0 1 17.3504-20.288 142.1952 142.1952 0 0 1 21.024-16.7424 143.7632 143.7632 0 0 1 24.1344-12.64 145.6384 145.6384 0 0 1 55.3024-10.7776h173.0688v5.1648a46.496 46.496 0 0 1-46.4832 46.496h-121.408a85.248 85.248 0 1 0 0 170.4896h167.904v5.1648a46.496 46.496 0 0 1-46.496 46.4896h-43.9104v0.3904z" fill="#08af4d" p-id="25532"></path></svg>